<svg width="86" height="67" viewBox="0 0 86 67" fill="none" xmlns="http://www.w3.org/2000/svg">
<path d="M62.312 63.28C52.4987 63.28 45.8853 61.5733 42.472 58.16C41.0213 56.7093 40.1253 55.088 39.784 53.296C39.4427 51.4187 39.272 48.56 39.272 44.72H41.832C42.6 48.9867 44.4347 52.3147 47.336 54.704C50.3227 57.008 54.4613 58.16 59.752 58.16C64.4453 58.16 67.944 57.3493 70.248 55.728C72.6373 54.1067 73.832 51.9307 73.832 49.2C73.832 46.7253 72.8933 44.592 71.016 42.8C69.224 41.008 66.3227 39.3013 62.312 37.68L54.632 34.48C49.512 32.432 45.672 30.0427 43.112 27.312C40.552 24.5813 39.272 21.2107 39.272 17.2C39.272 11.9947 41.2347 7.94133 45.16 5.04C49.0853 2.05333 54.1627 0.559998 60.392 0.559998C69.7787 0.559998 76.1787 2.26666 79.592 5.68C81.0427 7.13066 81.9387 8.752 82.28 10.544C82.6213 12.336 82.792 15.1947 82.792 19.12H80.232C79.5493 14.8533 77.7573 11.568 74.856 9.264C71.9547 6.87466 67.9867 5.68 62.952 5.68C58.9413 5.68 55.784 6.53333 53.48 8.24C51.2613 9.86133 50.152 11.9947 50.152 14.64C50.152 19.0773 53.5653 22.704 60.392 25.52L68.072 28.72C73.8747 31.1093 78.0987 33.6693 80.744 36.4C83.3893 39.0453 84.712 42.4587 84.712 46.64C84.712 51.8453 82.6213 55.9413 78.44 58.928C74.2587 61.8293 68.8827 63.28 62.312 63.28Z" fill="black"/>
<path d="M20.552 66.28C17.8213 66.28 15.048 65.7253 12.232 64.616C9.416 63.4213 6.984 61.5013 4.936 58.856C2.97333 56.2107 1.992 52.712 1.992 48.36C1.992 41.8747 4.97867 37.2667 10.952 34.536C17.0107 31.8053 24.904 30.44 34.632 30.44H38.472C38.472 22.0773 37.32 16.36 35.016 13.288C32.712 10.216 29.384 8.68 25.032 8.68C21.192 8.68 18.12 9.49066 15.816 11.112C13.512 12.7333 11.8907 15.5493 10.952 19.56H5.192C5.192 16.6587 5.36267 14.3973 5.704 12.776C6.04533 11.0693 6.94133 9.49066 8.392 8.04C9.928 6.504 12.4453 5.39466 15.944 4.712C19.528 3.944 23.4107 3.56 27.592 3.56C34.504 3.56 39.9653 5.43733 43.976 9.192C47.9867 12.8613 49.992 19.944 49.992 30.44V65H43.592L39.112 59.24H38.472C36.936 61.2027 34.6747 62.8667 31.688 64.232C28.7013 65.5973 24.9893 66.28 20.552 66.28ZM26.312 60.52C29.128 60.52 31.4747 59.8373 33.352 58.472C35.2293 57.1067 36.936 55.2293 38.472 52.84V35.56H34.632C28.3173 35.56 23.3253 36.7547 19.656 39.144C15.9867 41.448 14.152 44.52 14.152 48.36C14.152 52.2853 15.304 55.3147 17.608 57.448C19.9973 59.496 22.8987 60.52 26.312 60.52Z" fill="black"/>
<rect x="2.88667" y="10" width="95.6989" height="8" transform="rotate(29.0671 2.88667 10)" fill="white"/>
</svg>
